<?xml version="1.0" standalone="no"?>
<!DOCTYPE svg PUBLIC "-//W3C//DTD SVG 20010904//EN"
 "http://www.w3.org/TR/2001/REC-SVG-20010904/DTD/svg10.dtd">
<svg version="1.0" xmlns="http://www.w3.org/2000/svg"
 width="800.000000pt" height="600.000000pt" viewBox="0 0 800.000000 600.000000"
 preserveAspectRatio="xMidYMid meet">
<metadata>
Created by potrace 1.16, written by Peter Selinger 2001-2019
</metadata>
<g transform="translate(0.000000,600.000000) scale(0.100000,-0.100000)"
fill="#000000" stroke="none">
<path d="M4350 4690 c-26 -26 -28 -39 -35 -210 -10 -256 -59 -714 -94 -895
-10 -48 -9 -51 16 -70 41 -30 133 -117 133 -125 0 -4 -22 4 -50 18 -31 15 -69
25 -102 26 l-53 1 -11 -200 c-7 -110 -13 -240 -15 -290 l-3 -90 59 2 c65 3
150 -10 125 -19 -8 -3 -35 -13 -60 -22 -43 -15 -79 -35 -200 -112 -59 -37 -98
-42 -174 -22 -37 10 -51 9 -88 -5 -86 -33 -153 -112 -173 -207 -8 -35 -8 -35
-17 -10 -19 52 9 153 62 220 16 21 30 40 30 42 0 2 -15 2 -33 0 -18 -2 -50 3
-70 12 -63 26 -87 78 -157 350 -42 163 -68 246 -77 246 -7 0 -32 -17 -55 -37
l-41 -38 6 39 c3 21 15 56 27 77 l20 40 -41 81 c-70 139 -164 358 -198 460
-34 102 -62 143 -106 154 -57 14 -110 -61 -99 -141 14 -101 118 -455 184 -630
32 -85 39 -116 44 -205 4 -93 28 -200 43 -200 4 0 29 11 57 25 28 14 74 27
101 31 l50 6 -50 -30 c-165 -98 -247 -322 -201 -543 8 -37 24 -86 37 -110 l22
-44 28 60 c15 33 32 71 38 85 9 20 11 11 8 -50 -3 -50 -17 -119 -45 -210 -75
-251 -75 -327 0 -398 23 -21 27 -22 54 -7 79 41 181 -11 214 -109 8 -26 8 -45
-1 -78 -15 -53 -14 -65 18 -107 l26 -34 22 37 c35 58 38 55 30 -26 l-7 -77 31
-15 c16 -9 41 -16 55 -16 22 0 26 6 39 63 15 67 16 65 34 -38 l8 -50 55 0 55
0 11 55 c16 84 21 89 28 35 11 -72 12 -75 43 -75 50 0 70 23 77 90 7 60 26 75
26 20 0 -42 17 -46 58 -12 29 24 37 36 36 61 -2 27 0 29 17 21 15 -8 22 -5 35
16 16 24 16 28 -4 70 -12 24 -22 46 -22 47 0 1 17 1 39 -1 25 -3 52 3 79 17
51 26 66 26 100 1 66 -49 181 39 207 158 6 29 3 38 -23 65 -69 72 -94 195 -72
352 13 93 23 96 33 8 7 -61 27 -133 37 -133 4 0 11 21 15 46 10 66 78 268 124
367 87 189 210 337 336 404 124 65 143 127 53 175 -36 19 -59 23 -143 23 -92
0 -104 -2 -153 -29 -81 -45 -97 -74 -97 -173 0 -91 -11 -95 -41 -17 -9 24 -21
44 -26 44 -5 0 -32 -16 -61 -35 -29 -19 -54 -30 -55 -25 -2 6 8 34 22 63 24
50 25 57 16 142 -23 219 -23 413 0 720 28 379 31 714 7 800 -21 77 -60 115
-117 115 -26 0 -47 -7 -60 -20z m13 -2026 c-36 -78 -42 -212 -18 -437 20 -190
13 -257 -32 -301 -33 -33 -60 -40 -133 -33 -73 6 -145 44 -205 108 -133 142
-46 286 173 283 l82 -1 0 81 c1 158 40 272 117 335 20 17 38 29 40 27 2 -2 -9
-30 -24 -62z m-841 -315 c92 -20 181 -74 218 -134 13 -22 20 -50 20 -85 0 -91
-47 -142 -160 -173 -141 -40 -205 -27 -247 47 -44 81 -54 237 -17 293 16 25
46 43 89 54 43 10 39 10 97 -2z m351 -441 c56 -75 76 -158 47 -193 -15 -18
-30 -11 -30 14 0 10 -12 30 -27 45 -24 24 -27 25 -43 11 -10 -9 -31 -43 -46
-76 -16 -32 -31 -59 -35 -59 -11 0 -29 51 -29 86 0 19 6 49 14 67 18 44 93
137 111 137 8 0 25 -15 38 -32z"/>
<path d="M3850 3722 c-22 -11 -43 -35 -58 -64 l-23 -45 26 -369 c14 -203 29
-385 35 -404 5 -20 23 -49 40 -65 26 -25 40 -30 80 -30 40 0 54 5 80 30 16 16
34 45 40 65 5 19 12 204 16 410 l6 375 -23 34 c-37 53 -72 74 -131 78 -39 3
-62 -1 -88 -15z"/>
<path d="M3515 3590 c-52 -21 -85 -83 -85 -160 0 -58 104 -539 126 -581 20
-40 70 -69 117 -69 48 0 97 44 97 87 0 38 -58 611 -66 645 -3 15 -21 41 -40
58 -29 25 -43 30 -82 29 -26 0 -56 -4 -67 -9z"/>
</g>
</svg>
